<svg xmlns="http://www.w3.org/2000/svg" xmlns:v="https://svgstorm.com"
viewBox = "0 0 78 76"
width="78"
height="76">
<g fill="None" fill-opacity="0.0" stroke="#FAF2F4" stroke-opacity="1.00" stroke-width="0.3"><path d="
M 0.00 4.00 
C 1.66 24.93 1.67 49.14 0.00 70.00
L 0.00 76.00
L 78.00 76.00
L 78.00 2.00
C 77.17 1.59 76.13 1.03 76.00 0.00
L 0.00 0.00
L 0.00 4.00
M 76.00 73.00 
C 73.46 76.62 63.73 73.09 59.00 74.00 C 54.27 74.91 46.45 73.73 41.00 74.00 C 35.55 74.27 28.80 74.20 23.00 74.00 C 17.20 73.80 9.86 74.72 4.00 74.00
C 2.94 73.87 2.45 74.14 2.00 73.00
C -0.69 66.25 3.19 57.39 2.00 50.00 C 0.81 42.61 2.62 33.68 2.00 26.00 C 1.38 18.32 2.47 9.76 2.00 2.00
C 26.67 2.00 51.33 2.00 76.00 2.00
C 76.00 25.67 76.00 49.33 76.00 73.00 Z"/>
</g>
<g fill="None" fill-opacity="0.0" stroke="#CEFEFF" stroke-opacity="1.00" stroke-width="0.3"><path d="
M 78.00 2.00 
L 78.00 0.00
L 76.00 0.00
C 76.13 1.03 77.17 1.59 78.00 2.00 Z"/>
</g>
<g fill="None" fill-opacity="0.0" stroke="#BB353E" stroke-opacity="1.00" stroke-width="0.3"><path d="
M 2.00 73.00 
C 1.43 69.59 8.55 69.95 11.00 70.00 C 13.45 70.05 19.81 68.23 22.00 68.00
C 15.40 68.00 9.58 69.04 3.00 69.00
C 3.00 47.00 3.00 25.00 3.00 3.00
C 27.00 3.00 51.00 3.00 75.00 3.00
C 75.00 24.33 75.00 45.67 75.00 67.00
C 66.45 65.13 55.57 59.30 47.00 65.00
C 53.36 64.08 59.91 63.67 65.00 66.00
C 69.44 67.33 72.81 69.65 76.00 73.00
C 76.00 49.33 76.00 25.67 76.00 2.00
C 51.33 2.00 26.67 2.00 2.00 2.00
C 2.47 9.76 1.38 18.32 2.00 26.00 C 2.62 33.68 0.81 42.61 2.00 50.00 C 3.19 57.39 -0.69 66.25 2.00 73.00 Z"/>
</g>
<g fill="None" fill-opacity="0.0" stroke="#E2252F" stroke-opacity="1.00" stroke-width="0.3"><path d="
M 22.00 68.00 
C 23.66 68.00 25.34 68.06 27.00 68.00
C 33.39 67.78 39.59 66.35 46.00 66.00
C 46.21 65.96 46.77 65.26 47.00 65.00
C 55.57 59.30 66.45 65.13 75.00 67.00
C 75.00 45.67 75.00 24.33 75.00 3.00
C 51.00 3.00 27.00 3.00 3.00 3.00
C 3.00 25.00 3.00 47.00 3.00 69.00
C 9.58 69.04 15.40 68.00 22.00 68.00 Z"/>
</g>
<g fill="None" fill-opacity="0.0" stroke="#EFFAF8" stroke-opacity="1.00" stroke-width="0.3"><path d="
M 0.00 70.00 
C 1.67 49.14 1.66 24.93 0.00 4.00
L 0.00 70.00 Z"/>
</g>
<g fill="None" fill-opacity="0.0" stroke="#500509" stroke-opacity="1.00" stroke-width="0.3"><path d="
M 47.00 65.00 
C 46.77 65.26 46.21 65.96 46.00 66.00
C 52.32 65.66 59.13 64.24 65.00 66.00
C 59.91 63.67 53.36 64.08 47.00 65.00 Z"/>
</g>
<g fill="None" fill-opacity="0.0" stroke="#050201" stroke-opacity="1.00" stroke-width="0.3"><path d="
M 46.00 66.00 
C 39.59 66.35 33.39 67.78 27.00 68.00
C 20.00 69.79 11.99 71.59 4.00 71.00
C 4.00 72.00 4.00 73.00 4.00 74.00
C 9.86 74.72 17.20 73.80 23.00 74.00 C 28.80 74.20 35.55 74.27 41.00 74.00 C 46.45 73.73 54.27 74.91 59.00 74.00 C 63.73 73.09 73.46 76.62 76.00 73.00
C 72.81 69.65 69.44 67.33 65.00 66.00
C 59.13 64.24 52.32 65.66 46.00 66.00 Z"/>
</g>
<g fill="None" fill-opacity="0.0" stroke="#400305" stroke-opacity="1.00" stroke-width="0.3"><path d="
M 2.00 73.00 
C 2.45 74.14 2.94 73.87 4.00 74.00
C 4.00 73.00 4.00 72.00 4.00 71.00
C 11.99 71.59 20.00 69.79 27.00 68.00
C 25.34 68.06 23.66 68.00 22.00 68.00
C 19.81 68.23 13.45 70.05 11.00 70.00 C 8.55 69.95 1.43 69.59 2.00 73.00 Z"/>
</g>
<g fill="#FAF2F4" fill-opacity="1.00" stroke="None">
<path d="
M 0.00 4.00 
C 1.66 24.93 1.67 49.14 0.00 70.00
L 0.00 76.00
L 78.00 76.00
L 78.00 2.00
C 77.17 1.59 76.13 1.03 76.00 0.00
L 0.00 0.00
L 0.00 4.00
M 76.00 73.00 
C 73.46 76.62 63.73 73.09 59.00 74.00 C 54.27 74.91 46.45 73.73 41.00 74.00 C 35.55 74.27 28.80 74.20 23.00 74.00 C 17.20 73.80 9.86 74.72 4.00 74.00
C 2.94 73.87 2.45 74.14 2.00 73.00
C -0.69 66.25 3.19 57.39 2.00 50.00 C 0.81 42.61 2.62 33.68 2.00 26.00 C 1.38 18.32 2.47 9.76 2.00 2.00
C 26.67 2.00 51.33 2.00 76.00 2.00
C 76.00 25.67 76.00 49.33 76.00 73.00 Z"/>
</g>
<g fill="#CEFEFF" fill-opacity="1.00" stroke="None">
<path d="
M 78.00 2.00 
L 78.00 0.00
L 76.00 0.00
C 76.13 1.03 77.17 1.59 78.00 2.00 Z"/>
</g>
<g fill="#BB353E" fill-opacity="1.00" stroke="None">
<path d="
M 2.00 73.00 
C 1.43 69.59 8.55 69.95 11.00 70.00 C 13.45 70.05 19.81 68.23 22.00 68.00
C 15.40 68.00 9.58 69.04 3.00 69.00
C 3.00 47.00 3.00 25.00 3.00 3.00
C 27.00 3.00 51.00 3.00 75.00 3.00
C 75.00 24.33 75.00 45.67 75.00 67.00
C 66.45 65.13 55.57 59.30 47.00 65.00
C 53.36 64.08 59.91 63.67 65.00 66.00
C 69.44 67.33 72.81 69.65 76.00 73.00
C 76.00 49.33 76.00 25.67 76.00 2.00
C 51.33 2.00 26.67 2.00 2.00 2.00
C 2.47 9.76 1.38 18.32 2.00 26.00 C 2.62 33.68 0.81 42.61 2.00 50.00 C 3.19 57.39 -0.69 66.25 2.00 73.00 Z"/>
</g>
<g fill="#E2252F" fill-opacity="1.00" stroke="None">
<path d="
M 22.00 68.00 
C 23.66 68.00 25.34 68.06 27.00 68.00
C 33.39 67.78 39.59 66.35 46.00 66.00
C 46.21 65.96 46.77 65.26 47.00 65.00
C 55.57 59.30 66.45 65.13 75.00 67.00
C 75.00 45.67 75.00 24.33 75.00 3.00
C 51.00 3.00 27.00 3.00 3.00 3.00
C 3.00 25.00 3.00 47.00 3.00 69.00
C 9.58 69.04 15.40 68.00 22.00 68.00 Z"/>
</g>
<g fill="#EFFAF8" fill-opacity="1.00" stroke="None">
<path d="
M 0.00 70.00 
C 1.67 49.14 1.66 24.93 0.00 4.00
L 0.00 70.00 Z"/>
</g>
<g fill="#500509" fill-opacity="1.00" stroke="None">
<path d="
M 47.00 65.00 
C 46.77 65.26 46.21 65.96 46.00 66.00
C 52.32 65.66 59.13 64.24 65.00 66.00
C 59.91 63.67 53.36 64.08 47.00 65.00 Z"/>
</g>
<g fill="#050201" fill-opacity="1.00" stroke="None">
<path d="
M 46.00 66.00 
C 39.59 66.35 33.39 67.78 27.00 68.00
C 20.00 69.79 11.99 71.59 4.00 71.00
C 4.00 72.00 4.00 73.00 4.00 74.00
C 9.86 74.72 17.20 73.80 23.00 74.00 C 28.80 74.20 35.55 74.27 41.00 74.00 C 46.45 73.73 54.27 74.91 59.00 74.00 C 63.73 73.09 73.46 76.62 76.00 73.00
C 72.81 69.65 69.44 67.33 65.00 66.00
C 59.13 64.24 52.32 65.66 46.00 66.00 Z"/>
</g>
<g fill="#400305" fill-opacity="1.00" stroke="None">
<path d="
M 2.00 73.00 
C 2.45 74.14 2.94 73.87 4.00 74.00
C 4.00 73.00 4.00 72.00 4.00 71.00
C 11.99 71.59 20.00 69.79 27.00 68.00
C 25.34 68.06 23.66 68.00 22.00 68.00
C 19.81 68.23 13.45 70.05 11.00 70.00 C 8.55 69.95 1.43 69.59 2.00 73.00 Z"/>
</g>
</svg>